<svg width="32" height="32" viewBox="0 0 32 32" fill="none" xmlns="http://www.w3.org/2000/svg">
<path fill-rule="evenodd" clip-rule="evenodd" d="M0 6C0 4.34326 1.34326 3 3 3H19C20.6567 3 22 4.34326 22 6V22C22 23.6567 23.3433 25 25 25C26.6567 25 28 23.6567 28 22V19H24C24 16.791 25.7908 15 28 15C28 12.791 29.7908 11 32 11V22C32 25.8662 28.866 29 25 29H3C1.34326 29 0 27.6567 0 26V6ZM10 21.5C10 22.8809 8.88062 24 7.5 24C6.11938 24 5 22.8809 5 21.5C5 20.1191 6.11938 19 7.5 19C8.88062 19 10 20.1191 10 21.5Z" fill="#3D6CFF"/>
</svg>
